<svg width="218" height="218" viewBox="0 0 218 218" fill="none" xmlns="http://www.w3.org/2000/svg">
<path d="M9.186 128.997C9.186 128.997 0.301716 137.838 0.0171297 150.161C-0.189842 155.727 1.45041 162.034 6.485 168.542C6.485 168.542 6.56779 168.666 6.76959 168.909C8.52885 170.751 10.7021 172.469 13.4444 173.86C13.8118 174.067 14.2206 174.269 14.6345 174.393C15.0433 174.558 15.4935 174.76 15.985 174.925C17.1699 175.376 18.5256 175.743 19.9951 176.074C23.5188 176.809 27.8134 177.181 33.055 176.768C33.8312 176.685 34.6125 176.602 35.4301 176.519C36.2475 176.395 37.0703 176.312 37.9292 176.152C38.7881 176.028 39.6471 175.867 40.5474 175.702C40.6302 175.702 40.6716 175.702 40.7544 175.66C40.8372 175.66 40.92 175.66 41.0028 175.619C49.2403 174 59.3042 170.606 71.4377 164.646L20.9834 116.591C16.9682 120.673 13.0098 124.817 9.186 128.997Z" fill="white"/>
<path d="M34.5792 103.237L89.5768 155.617C94.5236 153.837 100.883 152.306 108.23 152.182L45.823 92.7455C42.1389 96.1132 38.3772 99.6159 34.5792 103.237Z" fill="white"/>
<path d="M61.5474 81.9984C61.5474 81.9984 185.679 199.976 181.363 195.605L191.081 183.892L73.2725 71.9676C69.7121 74.9577 65.7799 78.3101 61.5474 81.9984Z" fill="white"/>
<path d="M97.9936 48.8077C97.9936 48.8077 94.7182 51.3478 89.394 55.6417C89.394 55.6417 88.4936 56.3401 86.8528 57.6903C86.6617 57.8611 86.4496 58.0162 86.248 58.1714L203.285 169.553L213.142 157.82L98.3092 48.4508C98.1903 48.5749 98.1124 48.6887 97.9936 48.8077Z" fill="white"/>
<path d="M93.8978 7.86982C93.8978 7.86982 89.4635 9.36495 87.368 12.8103L224.901 143.882L234.789 132.179L102.415 5.94535C99.455 6.37474 96.578 6.98001 93.8978 7.86982Z" fill="white"/>
<path d="M157.846 12.6198C157.846 12.6198 146.245 8.83299 131.731 6.655L247.806 116.692L257.534 105.212L249.788 97.8865L162.006 14.296C160.635 13.7373 159.263 13.1786 157.846 12.6198Z" fill="white"/>
<path d="M649.971 217.868V52.1151H664.729V73.8688L665.2 73.9675C668.827 65.8864 674.259 59.6578 681.354 55.4571C688.442 51.2511 696.982 49.1146 706.73 49.1146C717.297 49.1146 726.76 51.753 734.853 56.9521C742.945 62.1565 749.307 69.6061 753.763 79.0994C758.227 88.6025 760.493 99.7974 760.493 112.368C760.493 124.774 758.227 135.799 753.763 145.131C749.307 154.464 742.945 161.789 734.853 166.906C726.76 172.022 717.298 174.619 706.737 174.619C696.982 174.619 688.453 172.487 681.359 168.277C674.259 164.071 668.827 157.842 665.204 149.767L664.734 149.865V217.868H649.971ZM704.734 61.8719C692.038 61.8719 682.093 66.2745 675.16 74.9654C668.242 83.6361 664.729 96.0472 664.729 111.867C664.729 127.687 668.195 140.061 675.036 148.644C681.881 157.248 691.79 161.608 704.484 161.608C717.332 161.608 727.448 157.248 734.554 148.644C741.638 140.056 745.233 127.852 745.233 112.364C745.233 96.5486 741.638 84.0498 734.554 75.2088C727.448 66.3624 717.416 61.8719 704.734 61.8719Z" fill="white"/>
<path d="M810.399 174.619C802.646 174.619 795.444 173.031 788.999 169.891C782.568 166.755 777.423 162.327 773.724 156.73C770.018 151.137 768.134 144.873 768.134 138.116C768.134 129.218 770.47 122.214 775.066 117.288C779.675 112.348 787.455 108.758 798.183 106.611C808.966 104.458 824.171 103.367 843.395 103.367H848.895V93.8686C848.895 82.86 846.6 74.6865 842.081 69.5804C837.548 64.4638 830.331 61.8719 820.64 61.8719C813.326 61.8719 806.192 62.9273 799.441 65.007C792.774 67.0712 785.801 70.4336 778.737 75.0071L773.105 63.5067C779.14 59.3577 786.524 55.7519 794.964 53.1032C803.404 50.4544 811.796 49.1146 819.896 49.1146C834.426 49.1146 845.425 52.9584 852.6 60.5372C859.775 68.1213 863.404 79.7558 863.404 95.1154V172.866H848.895V151.36L848.429 151.257C844.966 158.68 839.863 164.49 833.272 168.525C826.674 172.571 818.985 174.619 810.399 174.619ZM843.903 114.122C827.968 114.122 815.599 114.795 807.117 116.124C798.6 117.464 792.496 119.798 788.985 123.062C785.446 126.347 783.652 131.158 783.652 137.366C783.652 144.412 786.378 150.32 791.745 154.924C797.091 159.528 803.787 161.856 811.657 161.856C822.517 161.856 831.534 158.132 838.466 150.781C845.398 143.435 848.908 133.957 848.908 122.612V114.122H843.903Z" fill="white"/>
<path d="M900.99 217.87L920.589 173.213L868.73 52.1167H884.61L928.362 158.263L972.343 51.9667L987.257 52.1116L915.952 217.87H900.99Z" fill="white"/>
<path d="M393.361 151.869V174.094H286.119V154.715L286.43 154.337L356.06 71.6004H288.106V49.376H390.863V68.9622L390.552 69.3761L320.952 151.869H393.361Z" fill="white"/>
<path d="M496.129 139.917C485.098 148.82 472.596 153.342 458.998 153.342C436.258 153.342 424.129 141.562 421.972 117.351H508.113V107.967C508.113 88.8924 503.249 73.688 493.661 62.8293C484 51.9033 470.574 46.3575 453.757 46.3575C442.213 46.3575 431.766 49.0993 422.654 54.5417C413.542 59.984 406.386 67.7595 401.382 77.589C396.384 87.4182 393.849 98.8204 393.849 111.458C393.849 131.423 399.67 147.315 411.146 158.681C422.623 170.083 438.446 175.835 458.243 175.835C467.013 175.835 475.748 174.397 484.208 171.521C492.667 168.644 499.86 164.671 505.65 159.772L506.406 159.089M422.282 100.093C423.549 89.8548 426.835 81.8726 432.113 76.2901C437.561 70.5379 445.028 67.5939 454.238 67.5939C463.283 67.5939 470.371 70.5066 475.339 76.2595C480.136 81.8051 482.909 89.8187 483.561 100.093H422.282Z" fill="white"/>
<path d="M633.274 76.8756C628.618 67.1858 622.004 59.6173 613.648 54.3095C605.292 49.0379 595.564 46.3632 584.672 46.3632C575.322 46.3632 566.929 48.4533 559.737 52.5299C554.05 55.8201 549.358 60.2018 545.798 65.6131V0H517.779V174.092H545.798V156.834C549.358 162.245 554.05 166.596 559.737 169.778C566.929 173.818 575.322 175.841 584.672 175.841C595.394 175.841 605.121 173.068 613.545 167.621C621.968 162.178 628.618 154.403 633.306 144.574C637.931 134.744 640.291 123.374 640.291 110.74C640.296 97.8997 637.931 86.5288 633.274 76.8756ZM609.571 128.686C608.096 133.927 605.907 138.448 602.958 142.111C597.204 149.405 589.019 153.104 578.675 153.104C568.161 153.104 559.975 149.509 554.356 142.385C548.669 135.158 545.792 124.682 545.792 111.221C545.792 97.7599 548.669 87.284 554.356 80.0569C559.975 72.9696 568.161 69.3379 578.675 69.3379C589.189 69.3379 597.411 72.9335 603.098 79.9533C608.888 87.1081 611.796 97.4546 611.796 110.74C611.801 117.455 611.046 123.446 609.571 128.686Z" fill="white"/>
</svg>
